<svg xmlns="http://www.w3.org/2000/svg" xmlns:xlink="http://www.w3.org/1999/xlink" width="2000" zoomAndPan="magnify" viewBox="0 0 1500 1499.999933" height="2000" preserveAspectRatio="xMidYMid meet" version="1.0"><defs><g/><clipPath id="86d048d39d"><path d="M 242.539062 516 L 1257.289062 516 L 1257.289062 1258.71875 L 242.539062 1258.71875 Z M 242.539062 516 " clip-rule="nonzero"/></clipPath><clipPath id="d6e3e73290"><path d="M 242.539062 293 L 1257.289062 293 L 1257.289062 492 L 242.539062 492 Z M 242.539062 293 " clip-rule="nonzero"/></clipPath><clipPath id="96bf9e10c1"><path d="M 242.539062 491 L 1257.289062 491 L 1257.289062 1234 L 242.539062 1234 Z M 242.539062 491 " clip-rule="nonzero"/></clipPath><clipPath id="1964283280"><path d="M 732 800 L 1221.925781 800 L 1221.925781 1216 L 732 1216 Z M 732 800 " clip-rule="nonzero"/></clipPath></defs><g clip-path="url(#86d048d39d)"><path fill="#cccccc" d="M 242.539062 516.273438 L 242.539062 1196.855469 C 242.539062 1231.019531 270.238281 1258.71875 304.414062 1258.71875 L 1195.414062 1258.71875 C 1229.589844 1258.71875 1257.289062 1231.019531 1257.289062 1196.855469 L 1257.289062 516.273438 L 242.539062 516.273438 " fill-opacity="1" fill-rule="nonzero"/></g><g clip-path="url(#d6e3e73290)"><path fill="#ff4560" d="M 1133.546875 442.027344 C 1106.203125 442.027344 1084.046875 419.871094 1084.046875 392.53125 C 1084.046875 365.1875 1106.203125 343.03125 1133.546875 343.03125 C 1160.878906 343.03125 1183.046875 365.1875 1183.046875 392.53125 C 1183.046875 419.871094 1160.878906 442.027344 1133.546875 442.027344 Z M 737.539062 442.027344 C 710.203125 442.027344 688.039062 419.871094 688.039062 392.53125 C 688.039062 365.1875 710.203125 343.03125 737.539062 343.03125 C 764.875 343.03125 787.039062 365.1875 787.039062 392.53125 C 787.039062 419.871094 764.875 442.027344 737.539062 442.027344 Z M 366.292969 442.027344 C 338.949219 442.027344 316.792969 419.871094 316.792969 392.53125 C 316.792969 365.1875 338.949219 343.03125 366.292969 343.03125 C 393.625 343.03125 415.792969 365.1875 415.792969 392.53125 C 415.792969 419.871094 393.625 442.027344 366.292969 442.027344 Z M 1195.414062 293.535156 L 304.414062 293.535156 C 270.238281 293.535156 242.539062 321.234375 242.539062 355.40625 L 242.539062 491.523438 L 1257.289062 491.523438 L 1257.289062 355.40625 C 1257.289062 321.234375 1229.589844 293.535156 1195.414062 293.535156 " fill-opacity="1" fill-rule="nonzero"/></g><g clip-path="url(#96bf9e10c1)"><path fill="#f2f1f6" d="M 242.539062 491.523438 L 242.539062 1172.105469 C 242.539062 1206.273438 270.238281 1233.976562 304.414062 1233.976562 L 1195.414062 1233.976562 C 1229.589844 1233.976562 1257.289062 1206.273438 1257.289062 1172.105469 L 1257.289062 491.523438 L 242.539062 491.523438 " fill-opacity="1" fill-rule="nonzero"/></g><path fill="#c63226" d="M 366.292969 442.027344 C 338.949219 442.027344 316.792969 419.871094 316.792969 392.53125 C 316.792969 365.1875 338.949219 343.03125 366.292969 343.03125 C 393.625 343.03125 415.792969 365.1875 415.792969 392.53125 C 415.792969 419.871094 393.625 442.027344 366.292969 442.027344 Z M 366.292969 318.285156 C 325.28125 318.285156 292.039062 351.523438 292.039062 392.53125 C 292.039062 433.539062 325.28125 466.777344 366.292969 466.777344 C 407.292969 466.777344 440.542969 433.539062 440.542969 392.53125 C 440.542969 351.523438 407.292969 318.285156 366.292969 318.285156 " fill-opacity="1" fill-rule="nonzero"/><path fill="#c63226" d="M 737.539062 442.027344 C 710.203125 442.027344 688.039062 419.871094 688.039062 392.53125 C 688.039062 365.1875 710.203125 343.03125 737.539062 343.03125 C 764.875 343.03125 787.039062 365.1875 787.039062 392.53125 C 787.039062 419.871094 764.875 442.027344 737.539062 442.027344 Z M 737.539062 318.285156 C 696.539062 318.285156 663.289062 351.523438 663.289062 392.53125 C 663.289062 433.539062 696.539062 466.777344 737.539062 466.777344 C 778.550781 466.777344 811.789062 433.539062 811.789062 392.53125 C 811.789062 351.523438 778.550781 318.285156 737.539062 318.285156 " fill-opacity="1" fill-rule="nonzero"/><path fill="#c63226" d="M 1133.546875 442.027344 C 1106.203125 442.027344 1084.046875 419.871094 1084.046875 392.53125 C 1084.046875 365.1875 1106.203125 343.03125 1133.546875 343.03125 C 1160.878906 343.03125 1183.046875 365.1875 1183.046875 392.53125 C 1183.046875 419.871094 1160.878906 442.027344 1133.546875 442.027344 Z M 1133.546875 318.285156 C 1092.535156 318.285156 1059.292969 351.523438 1059.292969 392.53125 C 1059.292969 433.539062 1092.535156 466.777344 1133.546875 466.777344 C 1174.546875 466.777344 1207.796875 433.539062 1207.796875 392.53125 C 1207.796875 351.523438 1174.546875 318.285156 1133.546875 318.285156 " fill-opacity="1" fill-rule="nonzero"/><path fill="#e6e6e6" d="M 328.207031 278.964844 L 328.207031 391.152344 C 328.207031 412.109375 345.195312 429.105469 366.148438 429.105469 L 366.148438 241.015625 C 345.195312 241.015625 328.207031 258.003906 328.207031 278.964844 " fill-opacity="1" fill-rule="nonzero"/><path fill="#f2f2f2" d="M 366.148438 241.015625 L 366.148438 429.105469 C 387.109375 429.105469 404.105469 412.109375 404.105469 391.152344 L 404.105469 278.964844 C 404.105469 258.003906 387.109375 241.015625 366.148438 241.015625 " fill-opacity="1" fill-rule="nonzero"/><path fill="#e6e6e6" d="M 699.453125 278.964844 L 699.453125 391.152344 C 699.453125 412.109375 716.445312 429.105469 737.40625 429.105469 L 737.40625 241.015625 C 716.445312 241.015625 699.453125 258.003906 699.453125 278.964844 " fill-opacity="1" fill-rule="nonzero"/><path fill="#f2f2f2" d="M 737.40625 241.015625 L 737.40625 429.105469 C 758.367188 429.105469 775.355469 412.109375 775.355469 391.152344 L 775.355469 278.964844 C 775.355469 258.003906 758.367188 241.015625 737.40625 241.015625 " fill-opacity="1" fill-rule="nonzero"/><path fill="#e6e6e6" d="M 1095.453125 278.964844 L 1095.453125 391.152344 C 1095.453125 412.109375 1112.449219 429.105469 1133.402344 429.105469 L 1133.402344 241.015625 C 1112.449219 241.015625 1095.453125 258.003906 1095.453125 278.964844 " fill-opacity="1" fill-rule="nonzero"/><path fill="#f2f2f2" d="M 1133.402344 241.015625 L 1133.402344 429.105469 C 1154.363281 429.105469 1171.351562 412.109375 1171.351562 391.152344 L 1171.351562 278.964844 C 1171.351562 258.003906 1154.363281 241.015625 1133.402344 241.015625 " fill-opacity="1" fill-rule="nonzero"/><path fill="#cccccc" d="M 460.03125 699.699219 L 322.699219 699.699219 L 322.699219 591.46875 L 460.03125 591.46875 L 460.03125 699.699219 " fill-opacity="1" fill-rule="nonzero"/><path fill="#cccccc" d="M 634.105469 699.699219 L 496.773438 699.699219 L 496.773438 591.46875 L 634.105469 591.46875 L 634.105469 699.699219 " fill-opacity="1" fill-rule="nonzero"/><path fill="#cccccc" d="M 808.183594 699.699219 L 670.851562 699.699219 L 670.851562 591.46875 L 808.183594 591.46875 L 808.183594 699.699219 " fill-opacity="1" fill-rule="nonzero"/><path fill="#cccccc" d="M 982.261719 699.699219 L 844.929688 699.699219 L 844.929688 591.46875 L 982.261719 591.46875 L 982.261719 699.699219 " fill-opacity="1" fill-rule="nonzero"/><path fill="#cccccc" d="M 1156.339844 699.699219 L 1019.015625 699.699219 L 1019.015625 591.46875 L 1156.339844 591.46875 L 1156.339844 699.699219 " fill-opacity="1" fill-rule="nonzero"/><path fill="#cccccc" d="M 460.03125 837.023438 L 322.699219 837.023438 L 322.699219 728.785156 L 460.03125 728.785156 L 460.03125 837.023438 " fill-opacity="1" fill-rule="nonzero"/><path fill="#cccccc" d="M 634.105469 837.023438 L 496.773438 837.023438 L 496.773438 728.785156 L 634.105469 728.785156 L 634.105469 837.023438 " fill-opacity="1" fill-rule="nonzero"/><path fill="#cccccc" d="M 808.183594 837.023438 L 670.851562 837.023438 L 670.851562 728.785156 L 808.183594 728.785156 L 808.183594 837.023438 " fill-opacity="1" fill-rule="nonzero"/><path fill="#cccccc" d="M 982.261719 837.023438 L 844.929688 837.023438 L 844.929688 728.785156 L 982.261719 728.785156 L 982.261719 837.023438 " fill-opacity="1" fill-rule="nonzero"/><path fill="#cccccc" d="M 1156.339844 837.023438 L 1019.015625 837.023438 L 1019.015625 728.785156 L 1156.339844 728.785156 L 1156.339844 837.023438 " fill-opacity="1" fill-rule="nonzero"/><path fill="#cccccc" d="M 460.03125 974.332031 L 322.699219 974.332031 L 322.699219 866.101562 L 460.03125 866.101562 L 460.03125 974.332031 " fill-opacity="1" fill-rule="nonzero"/><path fill="#cccccc" d="M 634.105469 974.332031 L 496.773438 974.332031 L 496.773438 866.101562 L 634.105469 866.101562 L 634.105469 974.332031 " fill-opacity="1" fill-rule="nonzero"/><path fill="#cccccc" d="M 808.183594 974.332031 L 670.851562 974.332031 L 670.851562 866.101562 L 808.183594 866.101562 L 808.183594 974.332031 " fill-opacity="1" fill-rule="nonzero"/><path fill="#cccccc" d="M 982.261719 974.332031 L 844.929688 974.332031 L 844.929688 866.101562 L 982.261719 866.101562 L 982.261719 974.332031 " fill-opacity="1" fill-rule="nonzero"/><path fill="#cccccc" d="M 1156.339844 974.332031 L 1019.015625 974.332031 L 1019.015625 866.101562 L 1156.339844 866.101562 L 1156.339844 974.332031 " fill-opacity="1" fill-rule="nonzero"/><path fill="#cccccc" d="M 460.03125 1111.652344 L 322.699219 1111.652344 L 322.699219 1003.421875 L 460.03125 1003.421875 L 460.03125 1111.652344 " fill-opacity="1" fill-rule="nonzero"/><path fill="#cccccc" d="M 634.105469 1111.652344 L 496.773438 1111.652344 L 496.773438 1003.421875 L 634.105469 1003.421875 L 634.105469 1111.652344 " fill-opacity="1" fill-rule="nonzero"/><path fill="#cccccc" d="M 808.183594 1111.652344 L 670.851562 1111.652344 L 670.851562 1003.421875 L 808.183594 1003.421875 L 808.183594 1111.652344 " fill-opacity="1" fill-rule="nonzero"/><path fill="#cccccc" d="M 982.261719 1111.652344 L 844.929688 1111.652344 L 844.929688 1003.421875 L 982.261719 1003.421875 L 982.261719 1111.652344 " fill-opacity="1" fill-rule="nonzero"/><path fill="#cccccc" d="M 1156.339844 1111.652344 L 1019.015625 1111.652344 L 1019.015625 1003.421875 L 1156.339844 1003.421875 L 1156.339844 1111.652344 " fill-opacity="1" fill-rule="nonzero"/><path fill="#ff4560" d="M 1035.835938 694.675781 L 1002.882812 661.722656 L 908.558594 756.023438 L 869.339844 716.808594 L 836.375 749.769531 L 896.46875 809.144531 L 909.269531 821.222656 L 1035.835938 694.675781 " fill-opacity="1" fill-rule="nonzero"/><g fill="#000000" fill-opacity="1"><g transform="translate(280.382954, 1191.116253)"><g><path d="M 2.125 -132.765625 C 2.125 -133.410156 4.925781 -134.019531 10.53125 -134.59375 C 16.132812 -135.175781 20.738281 -135.46875 24.34375 -135.46875 C 38.644531 -135.46875 46.117188 -133.597656 46.765625 -129.859375 L 63.390625 -44.828125 L 79.046875 -129.859375 C 79.816406 -133.597656 87.800781 -135.46875 103 -135.46875 C 106.738281 -135.46875 111.441406 -135.207031 117.109375 -134.6875 C 122.773438 -134.175781 125.609375 -133.597656 125.609375 -132.953125 L 91.40625 -5.03125 C 90.894531 -2.96875 87.09375 -1.613281 80 -0.96875 C 69.050781 0.1875 59.097656 0.410156 50.140625 -0.296875 C 41.191406 -1.003906 36.457031 -2.257812 35.9375 -4.0625 Z M 2.125 -132.765625 "/></g></g></g><g fill="#000000" fill-opacity="1"><g transform="translate(408.122628, 1191.116253)"><g><path d="M 46.578125 -2.703125 C 46.578125 -0.640625 40.457031 0.390625 28.21875 0.390625 C 15.84375 0.390625 9.65625 -0.578125 9.65625 -2.515625 L 9.65625 -128.515625 C 9.65625 -133.023438 12.039062 -135.28125 16.8125 -135.28125 L 53.71875 -135.28125 C 87.601562 -135.28125 104.546875 -122.070312 104.546875 -95.65625 C 104.546875 -87.664062 103 -80.414062 99.90625 -73.90625 C 96.8125 -67.40625 92.429688 -62.222656 86.765625 -58.359375 L 111.125 -17.78125 C 110.09375 -14.6875 106.738281 -11.144531 101.0625 -7.15625 C 93.332031 -1.613281 86.957031 1.15625 81.9375 1.15625 C 76.914062 1.15625 73.179688 -0.644531 70.734375 -4.25 L 52.5625 -46.578125 L 46.578125 -46.578125 Z M 46.578125 -101.0625 L 46.578125 -72.078125 L 47.546875 -72.078125 C 59.773438 -72.078125 65.890625 -77.164062 65.890625 -87.34375 C 65.890625 -91.988281 64.695312 -95.4375 62.3125 -97.6875 C 59.9375 -99.9375 56.039062 -101.0625 50.625 -101.0625 Z M 46.578125 -101.0625 "/></g></g></g><g fill="#000000" fill-opacity="1"><g transform="translate(522.141386, 1191.116253)"><g><path d="M 64.9375 -137.015625 C 74.34375 -137.015625 82.617188 -135.691406 89.765625 -133.046875 C 96.910156 -130.410156 100.484375 -126.835938 100.484375 -122.328125 C 100.484375 -117.816406 98.773438 -112.242188 95.359375 -105.609375 C 91.953125 -98.972656 89.085938 -95.65625 86.765625 -95.65625 C 86.117188 -95.65625 85.378906 -96.007812 84.546875 -96.71875 C 83.710938 -97.425781 81.78125 -98.195312 78.75 -99.03125 C 75.71875 -99.875 73.109375 -100.296875 70.921875 -100.296875 C 63.453125 -100.296875 57.429688 -97.65625 52.859375 -92.375 C 48.285156 -87.09375 46 -79.007812 46 -68.125 C 46 -57.238281 48.347656 -49.148438 53.046875 -43.859375 C 57.742188 -38.578125 63.703125 -35.9375 70.921875 -35.9375 C 73.890625 -35.9375 77.207031 -36.351562 80.875 -37.1875 C 84.539062 -38.03125 87.148438 -39.226562 88.703125 -40.78125 C 88.960938 -41.03125 89.476562 -41.15625 90.25 -41.15625 C 91.019531 -41.15625 92.46875 -39.707031 94.59375 -36.8125 C 96.71875 -33.914062 98.679688 -30.113281 100.484375 -25.40625 C 102.296875 -20.707031 103.203125 -17.070312 103.203125 -14.5 C 103.203125 -9.46875 99.332031 -5.46875 91.59375 -2.5 C 83.863281 0.457031 74.71875 1.9375 64.15625 1.9375 C 47.15625 1.9375 33.175781 -4.050781 22.21875 -16.03125 C 11.269531 -28.019531 5.796875 -44.929688 5.796875 -66.765625 C 5.796875 -88.609375 11.429688 -105.773438 22.703125 -118.265625 C 33.972656 -130.765625 48.050781 -137.015625 64.9375 -137.015625 Z M 64.9375 -137.015625 "/></g></g></g><g clip-path="url(#1964283280)"><path fill="#000000" d="M 1068.324219 1047.347656 C 1072.363281 1104.996094 1026.238281 1150.371094 968.152344 1143.578125 C 942.253906 1140.535156 921.898438 1128.515625 907.074219 1107.5 C 902.117188 1100.46875 898.125 1091.644531 895.8125 1082.886719 C 889.445312 1058.640625 891.945312 1033.316406 904.507812 1011.632812 C 921.597656 982.066406 952.613281 967.605469 986.179688 968.890625 C 1012.742188 969.902344 1034.078125 980.59375 1050.171875 1000.976562 C 1061.070312 1014.738281 1067.121094 1030.195312 1068.324219 1047.347656 Z M 864.097656 891.601562 C 864.097656 891.617188 864.097656 891.617188 864.097656 891.632812 C 864.097656 891.746094 864.195312 891.824219 864.289062 891.824219 C 864.304688 891.824219 864.304688 891.824219 864.304688 891.824219 L 882.347656 891.554688 C 882.726562 891.554688 883.058594 891.285156 883.140625 890.90625 C 888.714844 865.851562 896.523438 840.605469 910.558594 818.210938 C 915.058594 811.054688 920.789062 808.394531 929.089844 806.761719 C 933.9375 805.8125 939.796875 804.925781 946.65625 804.101562 C 972.492188 800.996094 998.722656 799.871094 1025.367188 800.742188 C 1033.128906 800.996094 1041.695312 801.789062 1048.050781 803.386719 C 1053.78125 804.828125 1058.835938 808.359375 1063.191406 813.984375 C 1079.285156 834.730469 1090.324219 859.609375 1096.898438 884.96875 C 1096.960938 885.234375 1097.199219 885.425781 1097.46875 885.425781 C 1117.300781 885.234375 1142.34375 885.601562 1164.613281 887.546875 C 1169.9375 888.007812 1175.78125 888.972656 1182.164062 890.414062 C 1187.980469 891.714844 1192.621094 893.644531 1196.089844 896.210938 C 1202.378906 900.851562 1206.511719 906.726562 1208.476562 913.855469 C 1211.769531 925.75 1213.910156 938.480469 1214.875 952.023438 C 1215.855469 965.722656 1216.585938 981.132812 1217.09375 998.21875 C 1218.535156 1047.207031 1219.390625 1095.175781 1217.316406 1141.515625 C 1217.109375 1146 1216.554688 1152.585938 1215.667969 1161.28125 C 1214.90625 1168.773438 1213.308594 1175.757812 1210.867188 1182.25 C 1207.128906 1192.179688 1198.6875 1198.40625 1188.613281 1201.507812 C 1183.859375 1203 1179.582031 1203.996094 1175.78125 1204.535156 C 1166.625 1205.832031 1156.855469 1206.71875 1146.78125 1207.355469 C 1109.984375 1209.664062 1072.523438 1211.34375 1034.410156 1212.40625 C 984.132812 1213.785156 931.402344 1214.859375 876.203125 1215.605469 C 845.613281 1216.03125 815.265625 1215.921875 785.34375 1213.988281 C 774.554688 1213.292969 764.179688 1212.246094 755.515625 1205.898438 C 744.523438 1197.851562 740.390625 1181.363281 738.425781 1168.425781 C 736.207031 1153.933594 734.734375 1139.078125 734.007812 1123.890625 C 731.425781 1069.949219 731.867188 1013.960938 735.335938 955.917969 C 735.921875 946.257812 736.890625 937.355469 738.265625 929.265625 C 739.613281 921.378906 741.324219 915.28125 746.597656 909.453125 C 753.742188 901.546875 765.621094 899.21875 775.777344 897.921875 C 776.046875 897.890625 776.25 897.667969 776.25 897.398438 C 776.25 897.351562 776.25 897.320312 776.234375 897.273438 C 774.222656 888.449219 773.9375 879.566406 775.378906 870.632812 C 776.363281 864.519531 780.464844 862.335938 786.261719 861.085938 C 791.1875 860.007812 795.78125 859.277344 800.027344 858.867188 C 814.964844 857.441406 829.441406 857.15625 843.492188 858.042969 C 847.515625 858.296875 851.378906 858.867188 855.054688 859.753906 C 858.683594 860.625 861.042969 862.636719 862.121094 865.789062 C 864.859375 873.769531 865.019531 883.128906 864.097656 891.601562 Z M 1082.214844 885.15625 C 1076.941406 870.792969 1071.429688 857.316406 1065.710938 844.753906 C 1061.84375 836.265625 1057.648438 828.980469 1053.117188 822.882812 C 1051.074219 820.128906 1047.398438 815.410156 1044.691406 814.679688 C 1042.820312 814.171875 1039.921875 813.777344 1035.980469 813.476562 C 1028.707031 812.921875 1020.613281 812.636719 1011.710938 812.621094 C 982.457031 812.558594 953.863281 814.507812 925.9375 818.464844 C 925.558594 818.511719 925.210938 818.734375 925.003906 819.066406 C 920.1875 826.558594 916.117188 834.523438 912.792969 842.933594 C 906.804688 858.089844 901.910156 873.914062 898.09375 890.398438 C 898.09375 890.414062 898.09375 890.429688 898.09375 890.460938 C 898.09375 890.589844 898.203125 890.699219 898.328125 890.699219 C 898.328125 890.699219 898.34375 890.699219 898.34375 890.699219 C 935.441406 889.054688 963.035156 888.355469 1018.160156 886.851562 C 1041.761719 886.21875 1063 885.804688 1081.882812 885.648438 C 1082.089844 885.648438 1082.246094 885.488281 1082.246094 885.285156 C 1082.246094 885.234375 1082.230469 885.203125 1082.214844 885.15625 Z M 826.367188 893.757812 L 834.75 893.3125 C 835.035156 893.3125 835.253906 893.074219 835.269531 892.789062 L 836.332031 870.855469 C 836.332031 870.664062 836.191406 870.507812 836.015625 870.507812 L 823.136719 869.890625 C 823.121094 869.890625 823.121094 869.875 823.121094 869.875 C 822.851562 869.875 822.628906 870.09375 822.628906 870.363281 C 822.628906 870.394531 822.628906 870.445312 822.644531 870.476562 C 824.371094 877.699219 824.578125 882.242188 825.765625 893.25 C 825.796875 893.550781 826.066406 893.773438 826.367188 893.757812 Z M 813.492188 870.160156 L 785.328125 871.601562 C 785.296875 871.601562 785.265625 871.632812 785.265625 871.679688 C 784.929688 879.929688 785.40625 887.976562 786.722656 895.832031 C 786.769531 896.070312 786.992188 896.257812 787.242188 896.242188 L 796.195312 895.785156 C 796.210938 895.785156 796.226562 895.785156 796.242188 895.769531 C 796.542969 895.734375 796.75 895.453125 796.699219 895.148438 C 796.699219 895.132812 796.699219 895.117188 796.699219 895.101562 C 795.609375 889.90625 795.324219 884.714844 795.828125 879.535156 C 796.160156 876.273438 797.761719 869.621094 802.433594 872.722656 C 806.617188 875.480469 806.933594 890.335938 806.804688 894.40625 C 806.804688 894.597656 806.964844 894.753906 807.15625 894.753906 C 807.15625 894.753906 807.15625 894.753906 807.171875 894.753906 L 815.152344 894.34375 C 815.171875 894.34375 815.1875 894.34375 815.203125 894.328125 C 815.488281 894.296875 815.675781 894.042969 815.644531 893.757812 C 815.644531 893.742188 815.644531 893.726562 815.628906 893.710938 C 813.664062 885.679688 813.140625 878.046875 814.078125 870.792969 C 814.078125 870.777344 814.078125 870.746094 814.078125 870.730469 C 814.09375 870.429688 813.839844 870.160156 813.539062 870.160156 C 813.523438 870.160156 813.507812 870.160156 813.492188 870.160156 Z M 846.914062 888.5 L 846.753906 891.902344 C 846.753906 891.917969 846.753906 891.933594 846.753906 891.949219 C 846.753906 892.316406 847.039062 892.617188 847.402344 892.632812 L 848.542969 892.679688 C 848.542969 892.679688 848.5625 892.679688 848.5625 892.679688 C 848.734375 892.679688 848.878906 892.554688 848.878906 892.378906 C 848.878906 892.332031 848.863281 892.285156 848.84375 892.253906 L 847.230469 888.449219 C 847.214844 888.386719 847.152344 888.339844 847.085938 888.339844 C 846.992188 888.339844 846.914062 888.402344 846.914062 888.5 Z M 748.40625 992.15625 C 755.121094 991.441406 762.011719 990.871094 769.074219 990.429688 C 799.328125 988.527344 829.03125 987.910156 858.175781 988.574219 C 862.976562 988.6875 868.929688 989.128906 876.027344 989.875 C 876.058594 989.890625 876.089844 989.890625 876.105469 989.890625 C 876.328125 989.890625 876.535156 989.792969 876.675781 989.636719 C 877.105469 989.175781 877.644531 988.480469 878.277344 987.5625 C 890.773438 969.253906 906.660156 955.632812 925.9375 946.683594 C 951.3125 934.933594 981.457031 932.382812 1009.082031 937.800781 C 1031.449219 942.1875 1050.996094 952.339844 1067.707031 968.238281 C 1072.363281 972.675781 1077.097656 978.089844 1081.882812 984.457031 C 1082.027344 984.648438 1082.261719 984.757812 1082.5 984.742188 C 1121.183594 981.671875 1160.148438 980.957031 1199.398438 982.636719 C 1199.398438 982.636719 1199.414062 982.636719 1199.414062 982.636719 C 1199.667969 982.636719 1199.859375 982.429688 1199.859375 982.191406 C 1199.636719 965.769531 1198.480469 949.3125 1196.359375 932.828125 C 1195.613281 927.0625 1194.535156 921.996094 1193.109375 917.625 C 1190.210938 908.738281 1182.878906 905.460938 1174.277344 903.972656 C 1160.941406 901.644531 1147.617188 900.929688 1134.726562 900.457031 C 1091.246094 898.886719 1047.683594 899.726562 1003.269531 900.851562 C 939.371094 902.46875 871.496094 904.289062 809.039062 907.457031 C 799.1875 907.960938 789.792969 908.644531 780.828125 909.53125 C 777.152344 909.878906 773.164062 910.527344 768.855469 911.445312 C 759.90625 913.347656 753.519531 918.050781 751.558594 927.425781 C 749.511719 937.199219 749.070312 947.144531 748.707031 957.488281 C 748.339844 968.605469 748.070312 980.023438 747.945312 991.742188 C 747.945312 991.742188 747.945312 991.757812 747.945312 991.757812 C 747.945312 991.980469 748.152344 992.15625 748.371094 992.15625 C 748.371094 992.15625 748.390625 992.15625 748.390625 992.15625 Z M 1084.496094 1087.070312 C 1094.808594 1049.707031 1086.777344 1008.640625 1059.691406 980.355469 C 1040.984375 960.84375 1016.035156 949.648438 988.980469 947.730469 C 970.289062 946.398438 952.835938 948.902344 936.582031 955.238281 C 910.335938 965.484375 889.445312 986.863281 878.671875 1012.570312 C 873.90625 1023.941406 871.085938 1036.023438 870.246094 1048.835938 C 868.582031 1073.78125 874.585938 1100.183594 889.175781 1120.753906 C 905.425781 1143.671875 927.664062 1157.480469 955.90625 1162.21875 C 969.847656 1164.546875 984.339844 1164.355469 999.355469 1161.664062 C 1025.792969 1156.941406 1049.171875 1143.542969 1065.949219 1122.75 C 1074.753906 1111.839844 1080.933594 1099.945312 1084.496094 1087.070312 Z M 871.054688 999.011719 L 748.214844 1000.816406 C 748.039062 1000.816406 747.914062 1000.960938 747.898438 1001.132812 C 747.121094 1048.328125 748.007812 1095.429688 751.683594 1142.101562 C 752.746094 1155.582031 754.472656 1167.746094 756.878906 1178.625 C 759.128906 1188.871094 762.820312 1197.28125 773.90625 1199.402344 C 781.003906 1200.765625 788.875 1201.636719 797.476562 1202.015625 C 814.851562 1202.808594 831.691406 1203.109375 847.992188 1202.949219 C 902.480469 1202.414062 955.796875 1200.972656 1007.925781 1198.660156 C 1018.585938 1198.183594 1031.6875 1197.40625 1044.167969 1196.949219 C 1074.46875 1195.808594 1106.214844 1193.972656 1133.886719 1192.355469 C 1150.613281 1191.375 1164.648438 1190.628906 1178.933594 1187.9375 C 1182.292969 1187.304688 1185.082031 1186.496094 1187.296875 1185.515625 C 1196.914062 1181.238281 1198.324219 1166.050781 1199.210938 1156.992188 C 1199.96875 1149.4375 1200.476562 1142.5625 1200.746094 1136.386719 C 1201.394531 1121.199219 1201.726562 1106.136719 1201.742188 1091.203125 C 1201.792969 1055.882812 1201.570312 1025.300781 1200.445312 993.058594 C 1200.445312 992.851562 1200.269531 992.675781 1200.050781 992.675781 C 1200.050781 992.675781 1200.035156 992.675781 1200.015625 992.675781 C 1198.132812 992.851562 1195.789062 993.058594 1194.09375 993.042969 C 1159.515625 992.820312 1124.601562 993.390625 1089.34375 994.753906 C 1089.21875 994.753906 1089.105469 994.863281 1089.105469 994.988281 C 1089.105469 995.019531 1089.121094 995.070312 1089.136719 995.101562 C 1095.125 1006.265625 1099.671875 1018.113281 1102.03125 1030.71875 C 1103.347656 1037.765625 1104.167969 1043.957031 1104.503906 1049.3125 C 1105.292969 1061.871094 1104.121094 1074.558594 1100.984375 1087.335938 C 1095.0625 1111.554688 1080.949219 1133.109375 1061.8125 1149.085938 C 1042.25 1165.417969 1017.621094 1174.617188 992.101562 1176.691406 C 971.257812 1178.371094 950.441406 1176.28125 930.992188 1168.964844 C 884.945312 1151.652344 857.636719 1107.070312 856.957031 1058.671875 C 856.671875 1038.066406 861.375 1018.191406 871.085938 999.042969 C 871.085938 999.027344 871.070312 999.011719 871.070312 999.011719 C 871.054688 998.996094 871.054688 998.996094 871.054688 999.011719 Z M 792.835938 1170.925781 C 792.945312 1170.863281 793.058594 1170.691406 793.183594 1170.375 C 793.261719 1170.214844 793.40625 1170.039062 793.613281 1169.851562 C 800.3125 1164.054688 805.332031 1172.828125 808.484375 1177.324219 C 810.957031 1180.875 816.375 1179.527344 821.378906 1178.972656 C 830.265625 1178.007812 838.675781 1177.484375 846.628906 1177.4375 C 849.890625 1177.421875 853.152344 1177.707031 856.402344 1178.308594 C 858.886719 1178.75 864.433594 1180.652344 861.421875 1184.105469 C 859.1875 1186.6875 850.144531 1187.667969 845.628906 1188.238281 C 836.648438 1189.363281 827.253906 1190.042969 817.449219 1190.28125 C 810.324219 1190.457031 804.257812 1190.503906 799.933594 1183.867188 C 799.898438 1183.820312 799.867188 1183.789062 799.835938 1183.757812 C 799.597656 1183.566406 799.265625 1183.582031 799.078125 1183.804688 C 799.042969 1183.851562 799.011719 1183.882812 798.996094 1183.929688 C 798.601562 1184.722656 798.078125 1185.59375 797.445312 1186.511719 C 795.023438 1190.011719 790.761719 1189.980469 787.6875 1187.160156 C 783.09375 1182.949219 781.445312 1175.820312 780.355469 1168.996094 C 779.910156 1166.269531 779.609375 1163.847656 779.417969 1161.710938 C 779.402344 1161.535156 779.261719 1161.410156 779.085938 1161.410156 C 778.914062 1161.410156 778.769531 1161.519531 778.738281 1161.679688 C 778.121094 1165.082031 777.34375 1171.164062 775.125 1173.113281 C 774.921875 1173.304688 774.667969 1173.429688 774.382812 1173.476562 C 767.03125 1174.917969 765.417969 1161.0625 765.019531 1156.5625 C 763.644531 1140.566406 763.214844 1124.398438 763.738281 1108.039062 C 763.910156 1102.714844 764.308594 1097.332031 764.925781 1091.882812 C 765.164062 1089.777344 766.683594 1088.589844 768.773438 1089.933594 C 769.582031 1090.457031 770.167969 1091.628906 770.53125 1093.464844 C 771.738281 1099.453125 772.609375 1106.40625 773.164062 1114.308594 C 773.828125 1124.113281 774.460938 1135.355469 775.046875 1148.058594 C 775.046875 1148.152344 775.125 1148.234375 775.222656 1148.234375 C 775.269531 1148.234375 775.332031 1148.199219 775.363281 1148.152344 C 778.058594 1144.148438 782.175781 1141.851562 786.324219 1145.476562 C 788.988281 1147.804688 790 1153.871094 790.492188 1157.734375 C 790.871094 1160.746094 791.457031 1165.050781 792.234375 1170.675781 C 792.25 1170.863281 792.421875 1171.007812 792.613281 1171.007812 C 792.691406 1171.007812 792.773438 1170.976562 792.835938 1170.925781 Z M 807.234375 933.636719 C 810.703125 925.527344 827.273438 927.046875 833.957031 928.664062 C 842.414062 930.722656 843.632812 938.242188 842.890625 945.734375 C 842.320312 951.4375 839.390625 955.222656 834.113281 957.058594 C 827.714844 959.292969 821.125 959.6875 814.347656 958.214844 C 807.441406 956.726562 806.109375 951.722656 805.492188 945.195312 C 805.097656 941.140625 805.683594 937.277344 807.234375 933.636719 Z M 815.34375 937.957031 L 816.691406 948.269531 C 816.738281 948.570312 816.992188 948.792969 817.292969 948.792969 C 817.308594 948.792969 817.308594 948.792969 817.324219 948.792969 C 819.9375 948.726562 828.554688 948.425781 829.855469 946.667969 C 831.390625 944.578125 831.867188 942.109375 831.261719 939.257812 C 831.199219 938.972656 830.992188 938.75 830.726562 938.640625 C 829.300781 938.101562 827.808594 937.816406 826.257812 937.832031 C 821.363281 937.847656 817.832031 937.769531 815.675781 937.609375 C 815.660156 937.609375 815.660156 937.609375 815.644531 937.609375 C 815.488281 937.609375 815.34375 937.753906 815.34375 937.910156 C 815.34375 937.925781 815.34375 937.941406 815.34375 937.957031 Z M 771.199219 944.691406 C 770.914062 948.679688 770.597656 952.546875 770.246094 956.28125 C 770.152344 957.296875 769.820312 958.359375 769.265625 959.480469 C 767.839844 962.347656 764.132812 961.605469 762.753906 959.277344 C 761.933594 957.867188 761.457031 955.902344 761.3125 953.367188 C 760.933594 946.667969 761.488281 940 762.976562 933.382812 C 764.59375 926.253906 767.808594 921.710938 775.617188 921.171875 C 779.816406 920.886719 787.277344 921.425781 790.03125 924.640625 C 791.550781 926.429688 789.636719 928.503906 787.910156 929.199219 C 785.105469 930.308594 781.90625 930.910156 778.308594 931.007812 C 778.058594 931.023438 777.835938 931.242188 777.835938 931.511719 C 777.835938 931.5625 777.851562 931.609375 777.851562 931.640625 C 778.800781 934.917969 781.96875 944.910156 779.308594 947.289062 C 776.757812 949.566406 773.148438 947.035156 771.625 944.59375 C 771.578125 944.515625 771.5 944.484375 771.421875 944.484375 C 771.308594 944.484375 771.199219 944.578125 771.199219 944.691406 Z M 1108.984375 933.984375 C 1109.570312 927.492188 1110.996094 920.871094 1117.964844 918.652344 C 1121.925781 917.386719 1126.457031 917.007812 1130.78125 916.515625 C 1140.316406 915.40625 1149.757812 915.246094 1159.101562 916.039062 C 1168.511719 916.847656 1175.863281 918.859375 1179.394531 928.265625 C 1181.613281 934.171875 1182.65625 940.460938 1182.546875 947.144531 C 1182.355469 957.105469 1180.058594 964.882812 1169.097656 967.082031 C 1161.667969 968.589844 1153.335938 969.445312 1144.101562 969.679688 C 1137.023438 969.855469 1132.238281 969.917969 1125.980469 969.128906 C 1120.800781 968.476562 1115.605469 966.816406 1112.566406 962.730469 C 1107.386719 955.695312 1108.257812 942.046875 1108.984375 933.984375 Z M 1156.15625 957.773438 C 1159.832031 957.835938 1163.171875 957.390625 1166.199219 956.472656 C 1167.085938 956.203125 1167.78125 955.332031 1168.242188 953.875 C 1170.730469 946.242188 1170.585938 939.113281 1167.78125 932.511719 C 1165.960938 928.25 1162.96875 927.472656 1158.582031 927.078125 C 1147.113281 926.035156 1132.632812 926.382812 1119.421875 926.808594 C 1119.21875 926.808594 1119.042969 926.984375 1119.042969 927.191406 C 1119.042969 927.191406 1119.042969 927.191406 1119.042969 927.207031 L 1120.246094 950.421875 C 1120.246094 950.453125 1120.261719 950.46875 1120.277344 950.503906 C 1120.328125 950.597656 1120.4375 950.628906 1120.515625 950.566406 C 1120.546875 950.566406 1120.5625 950.535156 1120.578125 950.519531 C 1123.242188 946.335938 1126.3125 942.347656 1129.800781 938.527344 C 1133.378906 934.617188 1137.863281 930.246094 1143.515625 931.640625 C 1143.753906 931.703125 1144.007812 931.8125 1144.230469 932.003906 C 1147.601562 934.964844 1145.132812 938.847656 1142.992188 941.726562 C 1139.253906 946.796875 1135.328125 951.863281 1131.191406 956.964844 C 1130.921875 957.296875 1130.652344 957.707031 1130.402344 958.214844 C 1130.386719 958.261719 1130.371094 958.292969 1130.371094 958.339844 C 1130.371094 958.5 1130.496094 958.609375 1130.652344 958.609375 L 1140.933594 958.46875 C 1141.171875 958.46875 1141.394531 958.324219 1141.503906 958.089844 C 1144.546875 951.136719 1149.488281 943.390625 1155.664062 938.75 C 1157.707031 937.214844 1161.480469 936.851562 1162.953125 939.480469 C 1165.519531 944.136719 1158.976562 953.636719 1156.015625 957.46875 C 1156 957.503906 1155.980469 957.550781 1155.980469 957.582031 C 1155.980469 957.691406 1156.0625 957.773438 1156.15625 957.773438 Z M 1167.246094 1168.648438 C 1165.582031 1164.609375 1164.648438 1160.886719 1165.296875 1156.847656 C 1166.261719 1150.925781 1173.800781 1156.371094 1175.925781 1158.433594 C 1175.988281 1158.480469 1176.050781 1158.511719 1176.128906 1158.511719 C 1176.242188 1158.511719 1176.351562 1158.433594 1176.398438 1158.320312 C 1176.890625 1156.910156 1177.160156 1156.023438 1177.238281 1155.644531 C 1178.601562 1149.339844 1180.265625 1141.25 1182.230469 1131.335938 C 1182.703125 1129.007812 1183.449219 1125.332031 1184.859375 1123.367188 C 1184.921875 1123.289062 1184.96875 1123.242188 1185.015625 1123.179688 C 1185.632812 1122.542969 1186.664062 1122.511719 1187.296875 1123.128906 C 1187.34375 1123.195312 1187.394531 1123.242188 1187.441406 1123.304688 C 1189.753906 1126.125 1189.5 1132.964844 1189.453125 1136.433594 C 1189.292969 1146.0625 1188.089844 1155.34375 1185.839844 1164.277344 C 1184.226562 1170.722656 1181.453125 1175.742188 1174.4375 1177.167969 C 1164.234375 1179.226562 1153.988281 1180.128906 1143.707031 1179.921875 C 1140.363281 1179.84375 1137.59375 1179.402344 1135.359375 1178.5625 C 1133.664062 1177.945312 1133.378906 1176.835938 1134.519531 1175.25 C 1135.800781 1173.492188 1142.105469 1172.019531 1144.546875 1171.5625 C 1151.625 1170.230469 1159.085938 1169.4375 1166.929688 1169.167969 C 1167.132812 1169.152344 1167.277344 1168.996094 1167.277344 1168.789062 C 1167.277344 1168.742188 1167.277344 1168.695312 1167.246094 1168.648438 Z M 933.527344 1088.175781 C 925.226562 1088.414062 921.945312 1077.328125 920.964844 1071.089844 C 919.886719 1064.277344 919.886719 1057.292969 920.964844 1050.167969 C 923.101562 1036.054688 929.421875 1024.097656 939.910156 1014.296875 C 944.535156 1009.957031 951.363281 1006.519531 958 1007.566406 C 965.996094 1008.847656 965.554688 1015.246094 962.292969 1020.660156 C 959.628906 1025.066406 955.132812 1029.925781 952.34375 1033.964844 C 943.488281 1046.761719 940.9375 1061.394531 940.433594 1076.933594 C 940.304688 1081.175781 939.339844 1088.019531 933.527344 1088.175781 Z M 938.054688 840.527344 C 939.277344 834.222656 943.425781 832.765625 949.285156 832.054688 C 968.46875 829.695312 988.425781 828.617188 1009.144531 828.824219 C 1014.816406 828.871094 1020.203125 829.171875 1025.320312 829.710938 C 1030.75 830.28125 1033.316406 834.554688 1034.773438 839.277344 C 1037.246094 847.304688 1040.875 867.164062 1031.828125 872.421875 C 1030.339844 873.292969 1028.152344 873.878906 1025.269531 874.164062 C 1006.230469 876.082031 987.460938 876.257812 967.644531 876.144531 C 960.835938 876.097656 954.75 875.828125 949.429688 875.304688 C 946.816406 875.050781 942.109375 874.546875 940.101562 871.820312 C 938.910156 870.175781 938.152344 868.589844 937.867188 867.023438 C 936.21875 858.40625 936.296875 849.585938 938.054688 840.527344 Z M 948.082031 841.761719 C 947.71875 850.296875 948.003906 858.21875 948.921875 865.535156 C 948.9375 865.675781 949.066406 865.789062 949.222656 865.789062 C 949.222656 865.789062 949.238281 865.789062 949.238281 865.789062 C 966.535156 864.789062 986.035156 864.773438 1004.695312 864.25 C 1015.292969 863.964844 1022.214844 863.824219 1025.492188 863.808594 C 1025.492188 863.808594 1025.492188 863.808594 1025.507812 863.808594 C 1025.890625 863.808594 1026.207031 863.523438 1026.238281 863.144531 C 1026.839844 856.507812 1026.269531 850.0625 1024.527344 843.789062 C 1024.082031 842.160156 1023.59375 840.8125 1023.085938 839.765625 C 1022.957031 839.527344 1022.722656 839.386719 1022.453125 839.402344 C 996.1875 840.195312 975.167969 840.9375 959.410156 841.636719 C 955.957031 841.792969 952.25 841.761719 948.304688 841.554688 C 948.304688 841.554688 948.304688 841.554688 948.289062 841.554688 C 948.179688 841.554688 948.082031 841.652344 948.082031 841.761719 Z M 1155.648438 827.777344 C 1154.429688 833.398438 1153.226562 837.851562 1152.007812 841.113281 C 1151.070312 843.648438 1149.757812 846.511719 1147.554688 848.097656 C 1145.527344 849.554688 1143.644531 848.082031 1142.960938 846.132812 C 1140.917969 840.257812 1143.058594 831.324219 1144.371094 825.339844 C 1145.65625 819.367188 1147.382812 810.339844 1151.675781 805.84375 C 1153.097656 804.339844 1155.429688 803.769531 1156.679688 805.9375 C 1158.027344 808.296875 1158.027344 811.449219 1157.851562 814.140625 C 1157.597656 817.609375 1156.871094 822.15625 1155.648438 827.777344 Z M 1189.992188 849.046875 C 1186.980469 851.660156 1173.550781 863.507812 1169.699219 858.867188 C 1165.105469 853.324219 1177.875 842.617188 1181.644531 839.386719 C 1185.398438 836.125 1197.847656 825.054688 1202.664062 830.40625 C 1206.703125 834.890625 1193.015625 846.449219 1189.992188 849.046875 Z M 1221.511719 868.351562 C 1221.101562 865.488281 1214.019531 864.125 1205.71875 865.3125 C 1197.417969 866.515625 1191.019531 869.808594 1191.433594 872.691406 C 1191.84375 875.574219 1198.910156 876.9375 1207.222656 875.734375 C 1215.523438 874.53125 1221.925781 871.234375 1221.511719 868.351562 Z M 921.21875 1008.152344 C 904.777344 1028.582031 900.59375 1055.835938 907.945312 1080.636719 C 916.5 1109.460938 941.257812 1129.195312 971.160156 1131.839844 C 994.511719 1133.898438 1014.5 1127.359375 1031.132812 1112.21875 C 1052.816406 1092.46875 1061.496094 1058.734375 1052.421875 1031.164062 C 1049.457031 1022.183594 1045.039062 1014.167969 1039.179688 1007.152344 C 1024.84375 990.015625 1006.277344 981.085938 983.484375 980.371094 C 975.027344 980.101562 967.1875 980.957031 959.980469 982.90625 C 944.234375 987.199219 931.308594 995.605469 921.21875 1008.152344 Z M 921.21875 1008.152344 " fill-opacity="1" fill-rule="evenodd"/></g></svg>